<svg xmlns="http://www.w3.org/2000/svg" width="16" height="16" viewBox="0 0 16 16"><path data-name="camera" fill="none" d="M0 0h16v16H0z"/><path d="M15.334 12.667A1.333 1.333 0 0 1 14 14H2a1.333 1.333 0 0 1-1.333-1.333V5.333A1.333 1.333 0 0 1 2 4h2.667L6 2h4l1.333 2H14a1.333 1.333 0 0 1 1.333 1.333Z" fill="rgba(219,233,245,0.5)" stroke="#4a5f73" stroke-linecap="round" stroke-linejoin="round" stroke-width="1.2"/><path data-name="Vector" d="M10.666 8.667A2.667 2.667 0 1 1 8 6a2.667 2.667 0 0 1 2.666 2.667Z" fill="none" stroke="#4a5f73" stroke-linecap="round" stroke-linejoin="round" stroke-width="1.2"/></svg>