<svg xmlns="http://www.w3.org/2000/svg" width="24" height="23" viewBox="0 0 24 23"><path data-name="shopping-cart" fill="none" d="M0 0h24v23H0z"/><path d="M10 21a1 1 0 1 1-1-1 1 1 0 0 1 1 1Z" fill="none" stroke="#fff" stroke-linecap="round" stroke-linejoin="round" stroke-width="1.5"/><path data-name="Vector" d="M21 21a1 1 0 1 1-1-1 1 1 0 0 1 1 1ZM6 6h17l-1.6 8.39a2 2 0 0 1-2 1.61H9.68a2 2 0 0 1-2-1.61L5 1H1" fill="none" stroke="#fff" stroke-linecap="round" stroke-linejoin="round" stroke-width="1.5"/></svg>