<svg width="24" height="24" viewBox="0 0 24 24" fill="none" xmlns="http://www.w3.org/2000/svg"><path d="M10 21a1 1 0 1 1-2 0 1 1 0 0 1 2 0Zm11 0a1 1 0 1 1-2 0 1 1 0 0 1 2 0Z" stroke="#142535" stroke-width="1.5" stroke-linecap="round" stroke-linejoin="round"/><path d="M6 6h17l-1.6 8.39a2 2 0 0 1-2 1.61H9.68a2 2 0 0 1-2-1.61L5 1H1" fill="#61707D"/><path d="M6 6h17l-1.6 8.39a2 2 0 0 1-2 1.61H9.68a2 2 0 0 1-2-1.61L5 1H1" stroke="#142535" stroke-width="1.5" stroke-linecap="round" stroke-linejoin="round"/></svg>