<svg width="24" height="20" viewBox="0 0 24 20" fill="none" xmlns="http://www.w3.org/2000/svg"><path fill-rule="evenodd" clip-rule="evenodd" d="M12 8c-1.345 0-2.439.897-2.439 2 0 .326.106.636.286.918l3.272-2.684A2.846 2.846 0 0 0 12 8Zm7.385-4.907a.849.849 0 0 1 1.035 0c.286.234.286.614 0 .849L4.615 16.907a.817.817 0 0 1-.517.176.818.818 0 0 1-.518-.176c-.286-.235-.286-.614 0-.848l5.196-4.263c-.439-.525-.678-1.145-.678-1.795C8.098 8.235 9.848 6.8 12 6.8c.787 0 1.553.198 2.19.554l2.034-1.667a8.974 8.974 0 0 0-9.097.374c-1.443.932-2.682 2.29-3.595 3.94.406.738.878 1.418 1.404 2.025.234.27.157.645-.172.837a.84.84 0 0 1-.424.111.787.787 0 0 1-.597-.252 12.977 12.977 0 0 1-1.684-2.485.501.501 0 0 1 .001-.474c1.021-1.94 2.46-3.546 4.161-4.644 3.298-2.14 7.63-2.246 11.056-.296l2.108-1.73Zm2.555 6.669a12.936 12.936 0 0 0-1.893-2.709c-.244-.265-.702-.318-1.024-.119-.324.2-.388.576-.145.841a11.62 11.62 0 0 1 1.59 2.226c-1.876 3.388-5.023 5.402-8.468 5.402a8.75 8.75 0 0 1-2.306-.31c-.385-.102-.798.065-.925.38-.128.314.079.654.462.76.899.246 1.831.37 2.769.37 4.127 0 7.843-2.38 9.94-6.365a.502.502 0 0 0 0-.476Zm-7.55.594c-.177.813-.961 1.457-1.951 1.604-.398.06-.662.373-.59.7.064.289.373.491.719.491a.976.976 0 0 0 .132-.009c1.588-.237 2.847-1.27 3.13-2.573.073-.328-.192-.64-.59-.697-.395-.06-.778.16-.85.484Z" fill="#142535"/></svg>