<svg width="24" height="20" viewBox="0 0 24 20" fill="none" xmlns="http://www.w3.org/2000/svg"><path fill-rule="evenodd" clip-rule="evenodd" d="M12.002 3.333c4.136.002 7.851 2.406 9.938 6.428.08.153.08.325 0 .478-.248.478-.524.943-.822 1.378-.199.294-.643.396-.997.232-.352-.166-.476-.535-.278-.826.222-.326.432-.67.625-1.023C18.601 6.58 15.453 4.547 12 4.546 8.546 4.546 5.398 6.58 3.531 10c1.867 3.42 5.015 5.454 8.47 5.454 2.007 0 3.944-.692 5.601-2.004a.844.844 0 0 1 1.034.021c.28.241.268.625-.024.856-1.933 1.53-4.218 2.339-6.61 2.34h-.004c-4.136-.002-7.85-2.405-9.939-6.428a.511.511 0 0 1 0-.478c2.088-4.022 5.803-6.426 9.938-6.428h.005Zm-1.253 8.4a2.82 2.82 0 0 0 1.25.285c1.344 0 2.437-.905 2.437-2.018 0-1.112-1.093-2.017-2.436-2.017S9.564 8.888 9.564 10c0 .335-.328.606-.732.606-.404 0-.731-.271-.731-.606C8.1 8.219 9.85 6.77 12 6.77s3.899 1.45 3.899 3.23-1.75 3.23-3.9 3.23a4.51 4.51 0 0 1-2.003-.46c-.347-.171-.46-.544-.25-.832.208-.285.658-.38 1.003-.206Z" fill="#142535"/></svg>