<svg xmlns="http://www.w3.org/2000/svg" width="8.75" height="14" viewBox="0 0 8.75 14"><path data-name="Frame" fill="none" d="M0 0h8.75v14H0z"/><path d="M8.159.288v2.138a.285.285 0 0 1-.285.285H6.651c-.843 0-1 .329-1 .976v1.347H7.79a.286.286 0 0 1 .286.286v2.3a.285.285 0 0 1-.285.285H5.653v5.808a.285.285 0 0 1-.285.287H2.99a.285.285 0 0 1-.285-.285V7.907H.875a.285.285 0 0 1-.285-.286V5.32a.285.285 0 0 1 .285-.286h1.826V3.445A3.188 3.188 0 0 1 6.059 0h1.815a.286.286 0 0 1 .285.285Z" fill="#142535"/></svg>