<svg width="18" height="18" viewBox="0 0 18 18" fill="none" xmlns="http://www.w3.org/2000/svg"><path fill-rule="evenodd" clip-rule="evenodd" d="M4.5 8.377V3A.75.75 0 1 0 3 3v5.377a2.251 2.251 0 0 0 0 4.245V15a.75.75 0 1 0 1.5 0v-2.377a2.251 2.251 0 0 0 0-4.245ZM3.75 9.75a.75.75 0 1 0 0 1.5.75.75 0 0 0 0-1.5Zm10.5 6a.75.75 0 0 1-.75-.75v-1.5c0-.042.004-.084.011-.124a2.251 2.251 0 0 1 0-4.251A.756.756 0 0 1 13.5 9V3A.75.75 0 1 1 15 3v6a.724.724 0 0 1-.011.124 2.251 2.251 0 0 1 0 4.251.742.742 0 0 1 .011.124v1.5a.75.75 0 0 1-.75.75Zm-.75-4.5a.75.75 0 1 1 1.5 0 .75.75 0 0 1-1.5 0Zm-6.75-4.5c0-.98.626-1.813 1.5-2.123V3a.75.75 0 1 1 1.5 0v1.627a2.251 2.251 0 0 1-.011 4.248.742.742 0 0 1 .011.124v6a.75.75 0 1 1-1.5 0v-6c0-.042.004-.084.011-.124A2.251 2.251 0 0 1 6.75 6.75Zm1.5 0a.75.75 0 1 1 1.5 0 .75.75 0 0 1-1.5 0Z" fill="#4A5F73"/></svg>