<svg xmlns="http://www.w3.org/2000/svg" width="18.739" height="12" viewBox="0 0 18.739 12"><path d="M6.016 4.9h5.616a6.767 6.767 0 0 1-.132 3.162 5.4 5.4 0 0 1-1.536 2.5 5.49 5.49 0 0 1-2.457 1.272 6.407 6.407 0 0 1-3.071-.044 5.565 5.565 0 0 1-2.15-1.1A5.823 5.823 0 0 1 .664 8.72a5.641 5.641 0 0 1-.526-3.9 4.544 4.544 0 0 1 .526-1.496A5.6 5.6 0 0 1 4.042.34a5.808 5.808 0 0 1 4.036.044 6.04 6.04 0 0 1 1.93 1.185 2.57 2.57 0 0 1-.308.351 1.056 1.056 0 0 0-.263.263 6.431 6.431 0 0 0-.57.526 7.453 7.453 0 0 0-.526.57 3.059 3.059 0 0 0-1.316-.79 3.254 3.254 0 0 0-1.755-.043 3.5 3.5 0 0 0-1.8.965 4.271 4.271 0 0 0-.877 1.448 3.522 3.522 0 0 0 0 2.325A3.651 3.651 0 0 0 4 9.027a3.288 3.288 0 0 0 1.316.57 4.006 4.006 0 0 0 1.448 0 3.282 3.282 0 0 0 1.316-.526 2.557 2.557 0 0 0 1.182-1.843H6.016V4.9Zm12.723.132v1.494h-2.062v2.018h-1.492V6.526h-2.062V5.035h2.062V2.973h1.492v2.062Z" fill="#142535"/></svg>