<svg xmlns="http://www.w3.org/2000/svg" width="23.998" height="24" viewBox="0 0 23.998 24"><path d="M23.353 10.439a2.21 2.21 0 0 1-1.564 3.771h-.362v7.2A2.589 2.589 0 0 1 18.842 24h-3.83a.7.7 0 0 1-.7-.7v-5.652a1.181 1.181 0 0 0-1.18-1.18h-2.263a1.181 1.181 0 0 0-1.18 1.18V23.3a.7.7 0 0 1-.7.7H5.156a2.589 2.589 0 0 1-2.586-2.586v-7.2h-.458a2.208 2.208 0 0 1-1.47-3.764l.01-.01L10.437.647a2.209 2.209 0 0 1 3.125 0l9.79 9.79Zm-1 2.129a.8.8 0 0 0 0-1.135l-9.786-9.791a.8.8 0 0 0-1.136 0l-9.79 9.789a.8.8 0 0 0 .553 1.37h1.08a.7.7 0 0 1 .7.7v7.908a1.181 1.181 0 0 0 1.18 1.18h3.129v-4.941a2.589 2.589 0 0 1 2.586-2.586h2.259a2.589 2.589 0 0 1 2.586 2.586v4.945h3.127a1.181 1.181 0 0 0 1.18-1.18v-7.906a.7.7 0 0 1 .7-.7h1.065a.8.8 0 0 0 .568-.235Z" fill="#142535"/></svg>