<svg width="16" height="17" viewBox="0 0 16 17" fill="none" xmlns="http://www.w3.org/2000/svg"><path d="M2.666 9.833h10.667a1.333 1.333 0 0 1 1.333 1.333v2.667a1.332 1.332 0 0 1-1.333 1.333H2.666a1.333 1.333 0 0 1-1.333-1.333v-2.667a1.333 1.333 0 0 1 1.333-1.333Z" fill="#DBE9F5" stroke="#4A5F73" stroke-width="1.2" stroke-linecap="round" stroke-linejoin="round"/><path d="M4.8 13.083a.7.7 0 0 1-.325.599.756.756 0 0 1-.38.121v.3H3.91V13.8a.83.83 0 0 1-.509-.208.637.637 0 0 1-.2-.472h.336a.48.48 0 0 0 .106.267.43.43 0 0 0 .267.143v-.915a2.326 2.326 0 0 1-.37-.128.613.613 0 0 1-.24-.2.63.63 0 0 1-.099-.378.668.668 0 0 1 .192-.49.782.782 0 0 1 .517-.219v-.3h.185v.3c.175.009.342.08.47.2a.7.7 0 0 1 .205.45h-.332a.433.433 0 0 0-.343-.365v.892c.126.032.248.075.367.128.098.042.18.112.24.2a.636.636 0 0 1 .1.377v.001Zm-1.28-1.192a.362.362 0 0 0 .1.274.752.752 0 0 0 .29.157v-.844a.454.454 0 0 0-.285.122.383.383 0 0 0-.106.291Zm.574 1.642a.427.427 0 0 0 .394-.433.355.355 0 0 0-.1-.274.725.725 0 0 0-.294-.156v.863Z" fill="#4A5F73"/><path d="M2.666 1.833h10.667a1.333 1.333 0 0 1 1.333 1.333v2.667a1.333 1.333 0 0 1-1.333 1.333H2.666a1.333 1.333 0 0 1-1.333-1.333V3.166a1.333 1.333 0 0 1 1.333-1.333Z" fill="#DBE9F5" stroke="#4A5F73" stroke-width="1.2" stroke-linecap="round" stroke-linejoin="round"/><path d="M4.8 5.083a.7.7 0 0 1-.325.599.757.757 0 0 1-.38.121v.3H3.91V5.8a.83.83 0 0 1-.509-.208.636.636 0 0 1-.2-.472h.336a.48.48 0 0 0 .106.267.43.43 0 0 0 .267.143v-.915a2.33 2.33 0 0 1-.37-.128.614.614 0 0 1-.24-.2.629.629 0 0 1-.099-.378.668.668 0 0 1 .192-.49.782.782 0 0 1 .517-.219v-.3h.185v.3c.175.009.342.08.47.2a.7.7 0 0 1 .205.45h-.332a.433.433 0 0 0-.343-.365v.892c.126.033.248.075.367.128.098.042.18.112.24.2a.636.636 0 0 1 .1.377v.001ZM3.52 3.891a.362.362 0 0 0 .1.274.753.753 0 0 0 .29.157v-.844a.454.454 0 0 0-.285.122.383.383 0 0 0-.106.291Zm.574 1.642a.427.427 0 0 0 .394-.433.355.355 0 0 0-.1-.274.724.724 0 0 0-.294-.156v.863Z" fill="#4A5F73"/></svg>