<svg xmlns="http://www.w3.org/2000/svg" width="16" height="16" viewBox="0 0 16 16"><path data-name="server" fill="none" d="M0 0h16v16H0z"/><path d="M2.666 9.333h10.667a1.333 1.333 0 0 1 1.333 1.333v2.667a1.333 1.333 0 0 1-1.333 1.333H2.666a1.333 1.333 0 0 1-1.333-1.333v-2.667a1.333 1.333 0 0 1 1.333-1.333Z" fill="#dbe9f5" stroke="#4a5f73" stroke-linecap="round" stroke-linejoin="round" stroke-width="1.2"/><path data-name="$" d="M4.8 12.583a.73.73 0 0 1-.082.336.7.7 0 0 1-.243.263.757.757 0 0 1-.38.121v.3h-.186V13.3a.831.831 0 0 1-.509-.208.636.636 0 0 1-.2-.472h.336a.48.48 0 0 0 .106.267.431.431 0 0 0 .267.143v-.915a2.331 2.331 0 0 1-.37-.128.614.614 0 0 1-.24-.2.629.629 0 0 1-.099-.378.668.668 0 0 1 .192-.49.782.782 0 0 1 .517-.219v-.3h.185v.3a.737.737 0 0 1 .469.2.7.7 0 0 1 .206.45h-.332a.433.433 0 0 0-.106-.23.418.418 0 0 0-.237-.135v.892a2.358 2.358 0 0 1 .367.128.557.557 0 0 1 .24.2.636.636 0 0 1 .1.377Zm-1.281-1.192a.362.362 0 0 0 .1.274.753.753 0 0 0 .291.157v-.844a.454.454 0 0 0-.285.122.383.383 0 0 0-.106.291Zm.575 1.642a.427.427 0 0 0 .288-.143.423.423 0 0 0 .106-.29.355.355 0 0 0-.1-.274.724.724 0 0 0-.294-.156Z" fill="#4a5f73"/><path data-name="Vector" d="M2.666 1.333h10.667a1.333 1.333 0 0 1 1.333 1.333v2.667a1.333 1.333 0 0 1-1.333 1.333H2.666a1.333 1.333 0 0 1-1.333-1.333V2.666a1.333 1.333 0 0 1 1.333-1.333Z" fill="#dbe9f5" stroke="#4a5f73" stroke-linecap="round" stroke-linejoin="round" stroke-width="1.2"/><path data-name="$" d="M4.8 4.583a.73.73 0 0 1-.082.336.7.7 0 0 1-.243.263.757.757 0 0 1-.38.121v.3h-.186V5.3a.831.831 0 0 1-.509-.208.636.636 0 0 1-.2-.472h.336a.48.48 0 0 0 .106.267.431.431 0 0 0 .267.143v-.915a2.331 2.331 0 0 1-.37-.128.614.614 0 0 1-.24-.2.629.629 0 0 1-.099-.378.668.668 0 0 1 .192-.49.782.782 0 0 1 .517-.219v-.3h.185v.3a.737.737 0 0 1 .469.2.7.7 0 0 1 .206.45h-.332a.433.433 0 0 0-.106-.23.418.418 0 0 0-.237-.135v.892a2.358 2.358 0 0 1 .367.128.557.557 0 0 1 .24.2.636.636 0 0 1 .1.377ZM3.519 3.391a.362.362 0 0 0 .1.274.753.753 0 0 0 .291.157v-.844a.454.454 0 0 0-.285.122.383.383 0 0 0-.106.291Zm.575 1.642a.427.427 0 0 0 .288-.143.423.423 0 0 0 .106-.29.355.355 0 0 0-.1-.274.724.724 0 0 0-.294-.156Z" fill="#4a5f73"/></svg>