<svg width="70" height="70" viewBox="0 0 70 70" fill="none" xmlns="http://www.w3.org/2000/svg"><path d="M35 69c18.778 0 34-15.222 34-34S53.778 1 35 1 1 16.222 1 35s15.222 34 34 34Z" stroke="#142535" stroke-width="2"/><path d="m47 21.667-2.667 2.667L47 21.667ZM34.186 34.48a7.337 7.337 0 1 1-10.19 10.56 7.337 7.337 0 0 1 10.19-10.56Zm0 0 5.48-5.48-5.48 5.48Zm10.147-10.147 4 4L43.666 33l-4-4m0 0 4.667-4.667L39.666 29Z" fill="#E3E0DB"/><path d="m47 21.667-2.667 2.667M34.186 34.48a7.337 7.337 0 1 1-10.19 10.56 7.337 7.337 0 0 1 10.19-10.56Zm0 0 5.48-5.48m0 0 4 4 4.667-4.667-4-4L39.666 29Z" stroke="#142535" stroke-width="2" stroke-linecap="round" stroke-linejoin="round"/></svg>