<svg id="Frame_57" data-name="Frame 57" xmlns="http://www.w3.org/2000/svg" width="24" height="24" viewBox="0 0 24 24">
  <rect id="Frame_57-2" data-name="Frame 57" width="24" height="24" rx="12" fill="#f84c6b"/>
  <g id="gift" transform="translate(4 4)">
    <rect id="gift-2" data-name="gift" width="16" height="16" fill="none"/>
    <path id="Vector" d="M10.667,0V6.667H0V0" transform="translate(2.667 8)" fill="none" stroke="#fff" stroke-linecap="round" stroke-linejoin="round" stroke-width="1.2"/>
    <path id="Vector-2" data-name="Vector" d="M0,0H13.333V3.333H0Z" transform="translate(1.333 4.667)" fill="none" stroke="#fff" stroke-linecap="round" stroke-linejoin="round" stroke-width="1.2"/>
    <path id="Vector-3" data-name="Vector" d="M0,10V0" transform="translate(8 4.667)" fill="none" stroke="#fff" stroke-linecap="round" stroke-linejoin="round" stroke-width="1.2"/>
    <path id="Vector-4" data-name="Vector" d="M4.667,3.333h-3A1.667,1.667,0,0,1,1.667,0c2.333,0,3,3.333,3,3.333Z" transform="translate(3.333 1.333)" fill="none" stroke="#fff" stroke-linecap="round" stroke-linejoin="round" stroke-width="1.2"/>
    <path id="Vector-5" data-name="Vector" d="M3,0A1.667,1.667,0,0,1,3,3.333H0S.667,0,3,0Z" transform="translate(8 1.333)" fill="none" stroke="#fff" stroke-linecap="round" stroke-linejoin="round" stroke-width="1.2"/>
  </g>
</svg>
