<svg width="70" height="70" viewBox="0 0 70 70" fill="none" xmlns="http://www.w3.org/2000/svg"><path d="M35 69c18.778 0 34-15.222 34-34S53.778 1 35 1 1 16.222 1 35s15.222 34 34 34Z" stroke="#142535" stroke-width="2"/><path d="M45.666 35v13.333H24.333V35" fill="#DBE9F5"/><path d="M45.666 35v13.333H24.333V35" stroke="#142535" stroke-width="2" stroke-linecap="round" stroke-linejoin="round"/><path d="M21.667 28.333h26.667V35H21.667v-6.667Z" fill="#DBE9F5" stroke="#142535" stroke-width="2" stroke-linecap="round" stroke-linejoin="round"/><path d="M35 48.333v-20" stroke="#142535" stroke-width="2" stroke-linecap="round" stroke-linejoin="round"/><path d="M35 28.334h-6a3.333 3.333 0 1 1 0-6.667c4.667 0 6 6.667 6 6.667Zm6-6.667a3.333 3.333 0 1 1 0 6.667h-6s1.333-6.667 6-6.667Z" fill="#DBE9F5" stroke="#142535" stroke-width="2" stroke-linecap="round" stroke-linejoin="round"/></svg>