<svg xmlns="http://www.w3.org/2000/svg" width="14" height="14" viewBox="0 0 14 14"><path data-name="search" fill="none" d="M0 0h14v14H0z"/><path data-name="Vector (Stroke)" d="M6.413 2.188a4.229 4.229 0 1 0 4.233 4.225 4.229 4.229 0 0 0-4.233-4.225Zm-5.1 4.225a5.1 5.1 0 1 1 5.1 5.1 5.1 5.1 0 0 1-5.1-5.1Z" fill="#4a5f73" fill-rule="evenodd"/><path data-name="Vector (Stroke)" d="M9.3 9.3a.583.583 0 0 1 .829 0l2.533 2.537a.583.583 0 0 1-.825.825L9.3 10.129a.583.583 0 0 1 0-.825Z" fill="#4a5f73" fill-rule="evenodd"/></svg>