<svg xmlns="http://www.w3.org/2000/svg" width="24" height="24" viewBox="0 0 24 24"><path data-name="search" fill="none" d="M0 0h24v24H0z"/><path data-name="Vector (Stroke)" d="M11 3.75A7.25 7.25 0 1 0 18.25 11 7.25 7.25 0 0 0 11 3.75ZM2.25 11A8.75 8.75 0 1 1 11 19.75 8.75 8.75 0 0 1 2.25 11Z" fill="#142535" fill-rule="evenodd"/><path data-name="Vector (Stroke)" d="M15.943 15.943a1 1 0 0 1 1.414 0l4.35 4.35a1 1 0 0 1-1.414 1.414l-4.35-4.35a1 1 0 0 1 0-1.414Z" fill="#142535" fill-rule="evenodd"/></svg>