<svg xmlns="http://www.w3.org/2000/svg" width="16" height="14" viewBox="0 0 16 14"><path data-name="Frame" fill="none" d="M0 0h16v14H0z"/><g data-name="XMLID 826"><path data-name="XMLID 827" d="M15.939 2.032a.258.258 0 0 1 .017.31 6.677 6.677 0 0 1-1.536 1.627v.284a9.611 9.611 0 0 1-2.393 6.264 8.911 8.911 0 0 1-6.9 3.032 9.263 9.263 0 0 1-5.008-1.467.258.258 0 0 1 .17-.474 6.213 6.213 0 0 0 .727.043 6.077 6.077 0 0 0 3.248-.927 3.434 3.434 0 0 1-2.516-2.3.258.258 0 0 1 .294-.332c.087.017.174.029.261.038A3.447 3.447 0 0 1 .622 5.173v-.046a.258.258 0 0 1 .383-.22 2.909 2.909 0 0 0 .46.205 3.44 3.44 0 0 1-.352-3.952.258.258 0 0 1 .423-.034 8.794 8.794 0 0 0 6.036 3.2 3.5 3.5 0 0 1-.028-.444 3.436 3.436 0 0 1 5.838-2.452 6.09 6.09 0 0 0 1.8-.711.258.258 0 0 1 .377.3 3.421 3.421 0 0 1-.7 1.225 6.066 6.066 0 0 0 .774-.282.258.258 0 0 1 .3.07Z" fill="#142535"/></g></svg>