<svg xmlns="http://www.w3.org/2000/svg" width="16" height="16" viewBox="0 0 16 16"><path data-name="briefcase" fill="none" d="M0 0h16v16H0z"/><path d="M2.666 4.667h10.667A1.333 1.333 0 0 1 14.666 6v6.667A1.333 1.333 0 0 1 13.333 14H2.666a1.333 1.333 0 0 1-1.333-1.333V6a1.333 1.333 0 0 1 1.333-1.333Z" fill="#dbe9f5" stroke="#4a5f73" stroke-linecap="round" stroke-linejoin="round" stroke-width="1.2"/><path data-name="Vector" d="M5.333 14V3.333A1.333 1.333 0 0 1 6.666 2h2.667a1.333 1.333 0 0 1 1.333 1.333V14" fill="none" stroke="#4a5f73" stroke-linecap="round" stroke-linejoin="round" stroke-width="1.5"/></svg>